<svg xmlns="http://www.w3.org/2000/svg" xmlns:xlink="http://www.w3.org/1999/xlink" width="40" zoomAndPan="magnify" viewBox="0 0 30 30.000001" height="40" preserveAspectRatio="xMidYMid meet" version="1.0"><defs><clipPath id="9f1e0069a7"><path d="M 1.621094 0.421875 L 28.753906 0.421875 L 28.753906 28 L 1.621094 28 Z M 1.621094 0.421875 " clip-rule="nonzero"/></clipPath><clipPath id="399f2dfdcb"><path d="M 2.5625 1.074219 C 2.460938 1.074219 2.378906 1.074219 2.296875 1.074219 C 2.292969 1.0625 2.285156 1.050781 2.28125 1.039062 C 4.496094 -0.015625 7.253906 0.699219 9.652344 0.546875 C 17.921875 0.625 21.113281 0.523438 24.296875 0.476562 C 29.035156 0.367188 28.609375 1.28125 28.695312 5.515625 C 28.578125 10.875 28.753906 17.9375 28.667969 22.984375 C 28.660156 24.152344 28.671875 25.320312 28.671875 26.488281 C 28.738281 27.464844 28.0625 27.6875 27.214844 27.6875 C 20.839844 27.90625 9.367188 28.042969 2.984375 27.9375 C 1.945312 27.882812 1.886719 26.664062 1.78125 25.871094 C 1.695312 23.835938 1.746094 21.796875 1.746094 19.761719 C 1.765625 16.09375 1.625 11.449219 1.652344 7.726562 C 1.816406 5.746094 1.238281 2.59375 2.5625 1.074219 Z M 28.390625 3.878906 C 21.359375 4.179688 9.253906 3.921875 2.214844 4.121094 C 1.976562 4.125 1.96875 4.132812 1.96875 4.367188 C 1.8125 9.378906 2.023438 16.371094 2 21.726562 C 2.046875 23.484375 1.851562 25.265625 2.257812 26.996094 C 2.527344 28.164062 4.191406 27.683594 5.078125 27.820312 C 11.613281 27.683594 20.972656 27.652344 26.378906 27.429688 C 29.25 27.460938 28.246094 26.820312 28.398438 24.511719 C 28.414062 18.410156 28.304688 10.042969 28.390625 3.878906 Z M 1.980469 3.902344 C 9.09375 3.773438 21.273438 3.796875 28.386719 3.609375 C 28.25 0.941406 27.945312 0.875 25.332031 0.742188 C 23.394531 0.71875 21.460938 0.777344 19.523438 0.8125 C 12.753906 0.980469 6.984375 0.566406 3.265625 0.894531 C 2.121094 1.191406 2.074219 2.90625 1.980469 3.902344 Z M 16.898438 27.015625 C 14.972656 26.878906 8.847656 27.394531 8.855469 26.535156 C 8.914062 25.566406 8.730469 25.015625 9.941406 25.027344 C 16.609375 24.960938 18.199219 24.902344 19.792969 24.960938 C 20.210938 25.039062 20.851562 24.890625 21.148438 25.21875 C 21.265625 25.871094 21.441406 26.769531 20.503906 26.851562 C 19.308594 27.03125 18.105469 27.003906 16.898438 26.992188 C 16.898438 26.996094 16.898438 27.007812 16.898438 27.015625 Z M 16.703125 26.808594 C 16.703125 26.804688 16.703125 26.804688 16.703125 26.796875 C 17.484375 26.628906 21.238281 27.0625 21.125 26.078125 C 21.0625 25.808594 21.203125 25.207031 20.832031 25.179688 C 19.121094 25.125 17.414062 25.226562 12.269531 25.261719 C 10.105469 25.359375 9.035156 25.121094 9.046875 25.894531 C 9.058594 26.339844 8.9375 26.875 9.566406 26.808594 C 10.476562 26.808594 13.804688 26.808594 16.703125 26.808594 Z M 5.214844 3.144531 C 4.222656 3.082031 4.449219 1.828125 5.3125 1.957031 C 6.128906 2.144531 6 2.992188 5.214844 3.144531 Z M 5.265625 2.824219 C 5.917969 2.707031 5.546875 2.101562 5.0625 2.144531 C 4.636719 2.367188 4.78125 2.835938 5.265625 2.824219 Z M 7.308594 2.519531 C 7.332031 3.097656 6.421875 3.179688 6.226562 2.699219 C 6.058594 2.359375 6.449219 1.84375 6.832031 1.984375 C 7.171875 2.160156 7.308594 2.3125 7.308594 2.519531 Z M 7.15625 2.484375 C 6.832031 2.191406 6.75 1.921875 6.492188 2.4375 C 6.492188 2.839844 7.007812 2.875 7.15625 2.484375 Z M 4.109375 2.507812 C 4.179688 3.246094 2.972656 3.25 3.0625 2.523438 C 3.121094 2.039062 4.167969 1.867188 4.109375 2.507812 Z M 3.90625 2.488281 C 3.933594 2.078125 3.289062 2.320312 3.300781 2.589844 C 3.324219 2.945312 3.921875 2.886719 3.90625 2.488281 Z M 3.90625 2.488281 " clip-rule="nonzero"/></clipPath><clipPath id="9d2957c1b0"><path d="M 0.621094 0.421875 L 27.753906 0.421875 L 27.753906 28 L 0.621094 28 Z M 0.621094 0.421875 " clip-rule="nonzero"/></clipPath><clipPath id="1ef669963e"><path d="M 1.5625 1.074219 C 1.460938 1.074219 1.378906 1.074219 1.296875 1.074219 C 1.292969 1.0625 1.285156 1.050781 1.28125 1.039062 C 3.496094 -0.015625 6.253906 0.699219 8.652344 0.546875 C 16.921875 0.625 20.113281 0.523438 23.296875 0.476562 C 28.035156 0.367188 27.609375 1.28125 27.695312 5.515625 C 27.578125 10.875 27.753906 17.9375 27.667969 22.984375 C 27.660156 24.152344 27.671875 25.320312 27.671875 26.488281 C 27.738281 27.464844 27.0625 27.6875 26.214844 27.6875 C 19.839844 27.90625 8.367188 28.042969 1.984375 27.9375 C 0.945312 27.882812 0.886719 26.664062 0.78125 25.871094 C 0.695312 23.835938 0.746094 21.796875 0.746094 19.761719 C 0.765625 16.09375 0.625 11.449219 0.652344 7.726562 C 0.816406 5.746094 0.238281 2.59375 1.5625 1.074219 Z M 27.390625 3.878906 C 20.359375 4.179688 8.253906 3.921875 1.214844 4.121094 C 0.976562 4.125 0.96875 4.132812 0.96875 4.367188 C 0.8125 9.378906 1.023438 16.371094 1 21.726562 C 1.046875 23.484375 0.851562 25.265625 1.257812 26.996094 C 1.527344 28.164062 3.191406 27.683594 4.078125 27.820312 C 10.613281 27.683594 19.972656 27.652344 25.378906 27.429688 C 28.25 27.460938 27.246094 26.820312 27.398438 24.511719 C 27.414062 18.410156 27.304688 10.042969 27.390625 3.878906 Z M 0.980469 3.902344 C 8.09375 3.773438 20.273438 3.796875 27.386719 3.609375 C 27.25 0.941406 26.945312 0.875 24.332031 0.742188 C 22.394531 0.71875 20.460938 0.777344 18.523438 0.8125 C 11.753906 0.980469 5.984375 0.566406 2.265625 0.894531 C 1.121094 1.191406 1.074219 2.90625 0.980469 3.902344 Z M 15.898438 27.015625 C 13.972656 26.878906 7.847656 27.394531 7.855469 26.535156 C 7.914062 25.566406 7.730469 25.015625 8.941406 25.027344 C 15.609375 24.960938 17.199219 24.902344 18.792969 24.960938 C 19.210938 25.039062 19.851562 24.890625 20.148438 25.21875 C 20.265625 25.871094 20.441406 26.769531 19.503906 26.851562 C 18.308594 27.03125 17.105469 27.003906 15.898438 26.992188 C 15.898438 26.996094 15.898438 27.007812 15.898438 27.015625 Z M 15.703125 26.808594 C 15.703125 26.804688 15.703125 26.804688 15.703125 26.796875 C 16.484375 26.628906 20.238281 27.0625 20.125 26.078125 C 20.0625 25.808594 20.203125 25.207031 19.832031 25.179688 C 18.121094 25.125 16.414062 25.226562 11.269531 25.261719 C 9.105469 25.359375 8.035156 25.121094 8.046875 25.894531 C 8.058594 26.339844 7.9375 26.875 8.566406 26.808594 C 9.476562 26.808594 12.804688 26.808594 15.703125 26.808594 Z M 4.214844 3.144531 C 3.222656 3.082031 3.449219 1.828125 4.3125 1.957031 C 5.128906 2.144531 5 2.992188 4.214844 3.144531 Z M 4.265625 2.824219 C 4.917969 2.707031 4.546875 2.101562 4.0625 2.144531 C 3.636719 2.367188 3.78125 2.835938 4.265625 2.824219 Z M 6.308594 2.519531 C 6.332031 3.097656 5.421875 3.179688 5.226562 2.699219 C 5.058594 2.359375 5.449219 1.84375 5.832031 1.984375 C 6.171875 2.160156 6.308594 2.3125 6.308594 2.519531 Z M 6.15625 2.484375 C 5.832031 2.191406 5.75 1.921875 5.492188 2.4375 C 5.492188 2.839844 6.007812 2.875 6.15625 2.484375 Z M 3.109375 2.507812 C 3.179688 3.246094 1.972656 3.25 2.0625 2.523438 C 2.121094 2.039062 3.167969 1.867188 3.109375 2.507812 Z M 2.90625 2.488281 C 2.933594 2.078125 2.289062 2.320312 2.300781 2.589844 C 2.324219 2.945312 2.921875 2.886719 2.90625 2.488281 Z M 2.90625 2.488281 " clip-rule="nonzero"/></clipPath><clipPath id="7185ac10d2"><rect x="0" width="28" y="0" height="28"/></clipPath><clipPath id="83be1c42f4"><path d="M 5 4 L 25 4 L 25 25 L 5 25 Z M 5 4 " clip-rule="nonzero"/></clipPath><clipPath id="aeb507cdb9"><path d="M 23.554688 15.179688 C 23.515625 14.625 23.625 14.070312 23.769531 13.53125 C 25.105469 9.847656 22.019531 5.714844 18.152344 6.042969 C 16.835938 6.195312 15.949219 6.371094 14.683594 5.757812 C 14.28125 5.574219 13.882812 5.332031 13.480469 5.132812 C 9.0625 2.902344 3.980469 7.996094 6.164062 12.46875 C 6.269531 12.710938 6.378906 12.953125 6.472656 13.191406 C 6.644531 13.628906 6.75 14.054688 6.75 14.480469 C 6.761719 15.261719 6.347656 16.015625 6.046875 16.730469 C 4.320312 20.90625 8.679688 25.605469 12.917969 24.066406 C 13.277344 23.960938 13.625 23.859375 13.984375 23.800781 C 14.769531 23.660156 15.523438 23.816406 16.25 24.128906 C 16.535156 24.242188 16.816406 24.375 17.101562 24.484375 C 21.257812 26.128906 25.746094 21.648438 24.214844 17.457031 C 24.128906 17.214844 24.03125 16.972656 23.941406 16.734375 C 23.75 16.234375 23.589844 15.714844 23.554688 15.1875 Z M 23.554688 15.179688 " clip-rule="evenodd"/></clipPath><linearGradient x1="-15.569865" gradientTransform="matrix(0.0403355, 0, 0, 0.0408186, 4.518472, 4.046149)" y1="538.72709" x2="538.726377" gradientUnits="userSpaceOnUse" y2="-15.570645" id="e00402ddc4"><stop stop-opacity="1" stop-color="rgb(56.469727%, 23.139954%, 98.429871%)" offset="0"/><stop stop-opacity="1" stop-color="rgb(56.469727%, 23.139954%, 98.429871%)" offset="0.125"/><stop stop-opacity="1" stop-color="rgb(56.321716%, 23.269653%, 98.38562%)" offset="0.15625"/><stop stop-opacity="1" stop-color="rgb(55.892944%, 23.649597%, 98.25592%)" offset="0.160156"/><stop stop-opacity="1" stop-color="rgb(55.610657%, 23.899841%, 98.170471%)" offset="0.164062"/><stop stop-opacity="1" stop-color="rgb(55.328369%, 24.150085%, 98.085022%)" offset="0.167969"/><stop stop-opacity="1" stop-color="rgb(55.046082%, 24.40033%, 98.001099%)" offset="0.171875"/><stop stop-opacity="1" stop-color="rgb(54.763794%, 24.650574%, 97.915649%)" offset="0.175781"/><stop stop-opacity="1" stop-color="rgb(54.481506%, 24.900818%, 97.831726%)" offset="0.179688"/><stop stop-opacity="1" stop-color="rgb(54.199219%, 25.151062%, 97.746277%)" offset="0.183594"/><stop stop-opacity="1" stop-color="rgb(53.916931%, 25.401306%, 97.660828%)" offset="0.1875"/><stop stop-opacity="1" stop-color="rgb(53.634644%, 25.65155%, 97.575378%)" offset="0.191406"/><stop stop-opacity="1" stop-color="rgb(53.352356%, 25.901794%, 97.491455%)" offset="0.195312"/><stop stop-opacity="1" stop-color="rgb(53.068542%, 26.152039%, 97.406006%)" offset="0.199219"/><stop stop-opacity="1" stop-color="rgb(52.786255%, 26.402283%, 97.322083%)" offset="0.203125"/><stop stop-opacity="1" stop-color="rgb(52.503967%, 26.652527%, 97.236633%)" offset="0.207031"/><stop stop-opacity="1" stop-color="rgb(52.22168%, 26.902771%, 97.151184%)" offset="0.210938"/><stop stop-opacity="1" stop-color="rgb(51.939392%, 27.153015%, 97.065735%)" offset="0.214844"/><stop stop-opacity="1" stop-color="rgb(51.657104%, 27.403259%, 96.981812%)" offset="0.21875"/><stop stop-opacity="1" stop-color="rgb(51.374817%, 27.653503%, 96.896362%)" offset="0.222656"/><stop stop-opacity="1" stop-color="rgb(51.092529%, 27.903748%, 96.812439%)" offset="0.226562"/><stop stop-opacity="1" stop-color="rgb(50.810242%, 28.153992%, 96.72699%)" offset="0.230469"/><stop stop-opacity="1" stop-color="rgb(50.527954%, 28.404236%, 96.641541%)" offset="0.234375"/><stop stop-opacity="1" stop-color="rgb(50.245667%, 28.65448%, 96.556091%)" offset="0.238281"/><stop stop-opacity="1" stop-color="rgb(49.963379%, 28.904724%, 96.472168%)" offset="0.242188"/><stop stop-opacity="1" stop-color="rgb(49.681091%, 29.154968%, 96.386719%)" offset="0.246094"/><stop stop-opacity="1" stop-color="rgb(49.398804%, 29.405212%, 96.302795%)" offset="0.25"/><stop stop-opacity="1" stop-color="rgb(49.116516%, 29.655457%, 96.217346%)" offset="0.253906"/><stop stop-opacity="1" stop-color="rgb(48.834229%, 29.905701%, 96.131897%)" offset="0.257812"/><stop stop-opacity="1" stop-color="rgb(48.551941%, 30.155945%, 96.046448%)" offset="0.261719"/><stop stop-opacity="1" stop-color="rgb(48.269653%, 30.406189%, 95.962524%)" offset="0.265625"/><stop stop-opacity="1" stop-color="rgb(47.987366%, 30.654907%, 95.877075%)" offset="0.269531"/><stop stop-opacity="1" stop-color="rgb(47.705078%, 30.905151%, 95.793152%)" offset="0.273438"/><stop stop-opacity="1" stop-color="rgb(47.422791%, 31.155396%, 95.707703%)" offset="0.277344"/><stop stop-opacity="1" stop-color="rgb(47.140503%, 31.40564%, 95.622253%)" offset="0.28125"/><stop stop-opacity="1" stop-color="rgb(46.858215%, 31.655884%, 95.536804%)" offset="0.285156"/><stop stop-opacity="1" stop-color="rgb(46.575928%, 31.906128%, 95.452881%)" offset="0.289062"/><stop stop-opacity="1" stop-color="rgb(46.29364%, 32.156372%, 95.367432%)" offset="0.292969"/><stop stop-opacity="1" stop-color="rgb(46.011353%, 32.406616%, 95.283508%)" offset="0.296875"/><stop stop-opacity="1" stop-color="rgb(45.729065%, 32.65686%, 95.198059%)" offset="0.300781"/><stop stop-opacity="1" stop-color="rgb(45.446777%, 32.907104%, 95.11261%)" offset="0.304688"/><stop stop-opacity="1" stop-color="rgb(45.16449%, 33.157349%, 95.027161%)" offset="0.308594"/><stop stop-opacity="1" stop-color="rgb(44.882202%, 33.407593%, 94.943237%)" offset="0.3125"/><stop stop-opacity="1" stop-color="rgb(44.599915%, 33.657837%, 94.857788%)" offset="0.316406"/><stop stop-opacity="1" stop-color="rgb(44.317627%, 33.908081%, 94.773865%)" offset="0.320312"/><stop stop-opacity="1" stop-color="rgb(44.033813%, 34.158325%, 94.688416%)" offset="0.324219"/><stop stop-opacity="1" stop-color="rgb(43.751526%, 34.408569%, 94.602966%)" offset="0.328125"/><stop stop-opacity="1" stop-color="rgb(43.469238%, 34.658813%, 94.517517%)" offset="0.332031"/><stop stop-opacity="1" stop-color="rgb(43.186951%, 34.909058%, 94.433594%)" offset="0.335937"/><stop stop-opacity="1" stop-color="rgb(42.904663%, 35.159302%, 94.348145%)" offset="0.339844"/><stop stop-opacity="1" stop-color="rgb(42.622375%, 35.409546%, 94.264221%)" offset="0.34375"/><stop stop-opacity="1" stop-color="rgb(42.340088%, 35.65979%, 94.178772%)" offset="0.347656"/><stop stop-opacity="1" stop-color="rgb(42.0578%, 35.910034%, 94.093323%)" offset="0.351562"/><stop stop-opacity="1" stop-color="rgb(41.775513%, 36.160278%, 94.007874%)" offset="0.355469"/><stop stop-opacity="1" stop-color="rgb(41.493225%, 36.410522%, 93.92395%)" offset="0.359375"/><stop stop-opacity="1" stop-color="rgb(41.210938%, 36.660767%, 93.838501%)" offset="0.363281"/><stop stop-opacity="1" stop-color="rgb(40.92865%, 36.911011%, 93.754578%)" offset="0.367187"/><stop stop-opacity="1" stop-color="rgb(40.646362%, 37.161255%, 93.669128%)" offset="0.371094"/><stop stop-opacity="1" stop-color="rgb(40.364075%, 37.411499%, 93.583679%)" offset="0.375"/><stop stop-opacity="1" stop-color="rgb(40.081787%, 37.661743%, 93.49823%)" offset="0.378906"/><stop stop-opacity="1" stop-color="rgb(39.7995%, 37.911987%, 93.414307%)" offset="0.382812"/><stop stop-opacity="1" stop-color="rgb(39.517212%, 38.162231%, 93.328857%)" offset="0.386719"/><stop stop-opacity="1" stop-color="rgb(39.234924%, 38.412476%, 93.244934%)" offset="0.390625"/><stop stop-opacity="1" stop-color="rgb(38.952637%, 38.661194%, 93.159485%)" offset="0.394531"/><stop stop-opacity="1" stop-color="rgb(38.670349%, 38.911438%, 93.074036%)" offset="0.398437"/><stop stop-opacity="1" stop-color="rgb(38.388062%, 39.161682%, 92.988586%)" offset="0.402344"/><stop stop-opacity="1" stop-color="rgb(38.105774%, 39.411926%, 92.904663%)" offset="0.40625"/><stop stop-opacity="1" stop-color="rgb(37.823486%, 39.66217%, 92.819214%)" offset="0.410156"/><stop stop-opacity="1" stop-color="rgb(37.541199%, 39.912415%, 92.735291%)" offset="0.414062"/><stop stop-opacity="1" stop-color="rgb(37.258911%, 40.162659%, 92.649841%)" offset="0.417969"/><stop stop-opacity="1" stop-color="rgb(36.976624%, 40.412903%, 92.564392%)" offset="0.421875"/><stop stop-opacity="1" stop-color="rgb(36.694336%, 40.663147%, 92.478943%)" offset="0.425781"/><stop stop-opacity="1" stop-color="rgb(36.412048%, 40.913391%, 92.39502%)" offset="0.429687"/><stop stop-opacity="1" stop-color="rgb(36.129761%, 41.163635%, 92.30957%)" offset="0.433594"/><stop stop-opacity="1" stop-color="rgb(35.847473%, 41.413879%, 92.225647%)" offset="0.4375"/><stop stop-opacity="1" stop-color="rgb(35.565186%, 41.664124%, 92.140198%)" offset="0.441406"/><stop stop-opacity="1" stop-color="rgb(35.282898%, 41.914368%, 92.054749%)" offset="0.445312"/><stop stop-opacity="1" stop-color="rgb(35.00061%, 42.164612%, 91.969299%)" offset="0.449219"/><stop stop-opacity="1" stop-color="rgb(34.718323%, 42.414856%, 91.885376%)" offset="0.453125"/><stop stop-opacity="1" stop-color="rgb(34.434509%, 42.6651%, 91.799927%)" offset="0.457031"/><stop stop-opacity="1" stop-color="rgb(34.152222%, 42.915344%, 91.716003%)" offset="0.460938"/><stop stop-opacity="1" stop-color="rgb(33.869934%, 43.165588%, 91.630554%)" offset="0.464844"/><stop stop-opacity="1" stop-color="rgb(33.587646%, 43.415833%, 91.545105%)" offset="0.46875"/><stop stop-opacity="1" stop-color="rgb(33.305359%, 43.666077%, 91.459656%)" offset="0.472656"/><stop stop-opacity="1" stop-color="rgb(33.023071%, 43.916321%, 91.375732%)" offset="0.476562"/><stop stop-opacity="1" stop-color="rgb(32.740784%, 44.166565%, 91.290283%)" offset="0.480469"/><stop stop-opacity="1" stop-color="rgb(32.458496%, 44.416809%, 91.20636%)" offset="0.484375"/><stop stop-opacity="1" stop-color="rgb(32.176208%, 44.667053%, 91.120911%)" offset="0.488281"/><stop stop-opacity="1" stop-color="rgb(31.893921%, 44.917297%, 91.035461%)" offset="0.492188"/><stop stop-opacity="1" stop-color="rgb(31.611633%, 45.167542%, 90.950012%)" offset="0.496094"/><stop stop-opacity="1" stop-color="rgb(31.329346%, 45.417786%, 90.866089%)" offset="0.5"/><stop stop-opacity="1" stop-color="rgb(31.047058%, 45.66803%, 90.78064%)" offset="0.503906"/><stop stop-opacity="1" stop-color="rgb(30.764771%, 45.918274%, 90.696716%)" offset="0.507812"/><stop stop-opacity="1" stop-color="rgb(30.482483%, 46.166992%, 90.611267%)" offset="0.511719"/><stop stop-opacity="1" stop-color="rgb(30.200195%, 46.417236%, 90.525818%)" offset="0.515625"/><stop stop-opacity="1" stop-color="rgb(29.917908%, 46.66748%, 90.440369%)" offset="0.519531"/><stop stop-opacity="1" stop-color="rgb(29.63562%, 46.917725%, 90.356445%)" offset="0.523438"/><stop stop-opacity="1" stop-color="rgb(29.353333%, 47.167969%, 90.270996%)" offset="0.527344"/><stop stop-opacity="1" stop-color="rgb(29.071045%, 47.418213%, 90.187073%)" offset="0.53125"/><stop stop-opacity="1" stop-color="rgb(28.788757%, 47.668457%, 90.101624%)" offset="0.535156"/><stop stop-opacity="1" stop-color="rgb(28.50647%, 47.918701%, 90.016174%)" offset="0.539062"/><stop stop-opacity="1" stop-color="rgb(28.224182%, 48.168945%, 89.930725%)" offset="0.542969"/><stop stop-opacity="1" stop-color="rgb(27.941895%, 48.419189%, 89.846802%)" offset="0.546875"/><stop stop-opacity="1" stop-color="rgb(27.659607%, 48.669434%, 89.761353%)" offset="0.550781"/><stop stop-opacity="1" stop-color="rgb(27.377319%, 48.919678%, 89.677429%)" offset="0.554688"/><stop stop-opacity="1" stop-color="rgb(27.095032%, 49.169922%, 89.59198%)" offset="0.558594"/><stop stop-opacity="1" stop-color="rgb(26.812744%, 49.420166%, 89.506531%)" offset="0.5625"/><stop stop-opacity="1" stop-color="rgb(26.530457%, 49.67041%, 89.421082%)" offset="0.566406"/><stop stop-opacity="1" stop-color="rgb(26.248169%, 49.920654%, 89.337158%)" offset="0.570312"/><stop stop-opacity="1" stop-color="rgb(25.965881%, 50.170898%, 89.251709%)" offset="0.574219"/><stop stop-opacity="1" stop-color="rgb(25.683594%, 50.421143%, 89.167786%)" offset="0.578125"/><stop stop-opacity="1" stop-color="rgb(25.401306%, 50.671387%, 89.082336%)" offset="0.582031"/><stop stop-opacity="1" stop-color="rgb(25.119019%, 50.921631%, 88.996887%)" offset="0.585937"/><stop stop-opacity="1" stop-color="rgb(24.835205%, 51.171875%, 88.911438%)" offset="0.589844"/><stop stop-opacity="1" stop-color="rgb(24.552917%, 51.422119%, 88.827515%)" offset="0.59375"/><stop stop-opacity="1" stop-color="rgb(24.27063%, 51.672363%, 88.742065%)" offset="0.597656"/><stop stop-opacity="1" stop-color="rgb(23.988342%, 51.922607%, 88.658142%)" offset="0.601562"/><stop stop-opacity="1" stop-color="rgb(23.706055%, 52.172852%, 88.572693%)" offset="0.605469"/><stop stop-opacity="1" stop-color="rgb(23.423767%, 52.423096%, 88.487244%)" offset="0.609375"/><stop stop-opacity="1" stop-color="rgb(23.141479%, 52.67334%, 88.401794%)" offset="0.613281"/><stop stop-opacity="1" stop-color="rgb(22.859192%, 52.923584%, 88.317871%)" offset="0.617187"/><stop stop-opacity="1" stop-color="rgb(22.576904%, 53.173828%, 88.232422%)" offset="0.621094"/><stop stop-opacity="1" stop-color="rgb(22.294617%, 53.424072%, 88.148499%)" offset="0.625"/><stop stop-opacity="1" stop-color="rgb(22.012329%, 53.674316%, 88.063049%)" offset="0.628906"/><stop stop-opacity="1" stop-color="rgb(21.730042%, 53.924561%, 87.9776%)" offset="0.632812"/><stop stop-opacity="1" stop-color="rgb(21.447754%, 54.173279%, 87.892151%)" offset="0.636719"/><stop stop-opacity="1" stop-color="rgb(21.165466%, 54.423523%, 87.808228%)" offset="0.640625"/><stop stop-opacity="1" stop-color="rgb(20.883179%, 54.673767%, 87.722778%)" offset="0.644531"/><stop stop-opacity="1" stop-color="rgb(20.600891%, 54.924011%, 87.638855%)" offset="0.648437"/><stop stop-opacity="1" stop-color="rgb(20.318604%, 55.174255%, 87.553406%)" offset="0.652344"/><stop stop-opacity="1" stop-color="rgb(20.036316%, 55.4245%, 87.467957%)" offset="0.65625"/><stop stop-opacity="1" stop-color="rgb(19.754028%, 55.674744%, 87.382507%)" offset="0.660156"/><stop stop-opacity="1" stop-color="rgb(19.471741%, 55.924988%, 87.298584%)" offset="0.664062"/><stop stop-opacity="1" stop-color="rgb(19.189453%, 56.175232%, 87.213135%)" offset="0.667969"/><stop stop-opacity="1" stop-color="rgb(18.907166%, 56.425476%, 87.129211%)" offset="0.671875"/><stop stop-opacity="1" stop-color="rgb(18.624878%, 56.67572%, 87.043762%)" offset="0.675781"/><stop stop-opacity="1" stop-color="rgb(18.34259%, 56.925964%, 86.958313%)" offset="0.679687"/><stop stop-opacity="1" stop-color="rgb(18.060303%, 57.176208%, 86.872864%)" offset="0.683594"/><stop stop-opacity="1" stop-color="rgb(17.778015%, 57.426453%, 86.78894%)" offset="0.6875"/><stop stop-opacity="1" stop-color="rgb(17.495728%, 57.676697%, 86.703491%)" offset="0.691406"/><stop stop-opacity="1" stop-color="rgb(17.21344%, 57.926941%, 86.619568%)" offset="0.695312"/><stop stop-opacity="1" stop-color="rgb(16.931152%, 58.177185%, 86.534119%)" offset="0.699219"/><stop stop-opacity="1" stop-color="rgb(16.648865%, 58.427429%, 86.448669%)" offset="0.703125"/><stop stop-opacity="1" stop-color="rgb(16.366577%, 58.677673%, 86.36322%)" offset="0.707031"/><stop stop-opacity="1" stop-color="rgb(16.08429%, 58.927917%, 86.279297%)" offset="0.710937"/><stop stop-opacity="1" stop-color="rgb(15.802002%, 59.178162%, 86.193848%)" offset="0.714844"/><stop stop-opacity="1" stop-color="rgb(15.519714%, 59.428406%, 86.109924%)" offset="0.71875"/><stop stop-opacity="1" stop-color="rgb(15.235901%, 59.67865%, 86.024475%)" offset="0.722656"/><stop stop-opacity="1" stop-color="rgb(14.953613%, 59.928894%, 85.939026%)" offset="0.726562"/><stop stop-opacity="1" stop-color="rgb(14.671326%, 60.179138%, 85.853577%)" offset="0.730469"/><stop stop-opacity="1" stop-color="rgb(14.389038%, 60.429382%, 85.769653%)" offset="0.734375"/><stop stop-opacity="1" stop-color="rgb(14.10675%, 60.679626%, 85.684204%)" offset="0.738281"/><stop stop-opacity="1" stop-color="rgb(13.824463%, 60.929871%, 85.600281%)" offset="0.742188"/><stop stop-opacity="1" stop-color="rgb(13.542175%, 61.180115%, 85.514832%)" offset="0.746094"/><stop stop-opacity="1" stop-color="rgb(13.259888%, 61.430359%, 85.429382%)" offset="0.75"/><stop stop-opacity="1" stop-color="rgb(12.9776%, 61.680603%, 85.343933%)" offset="0.753906"/><stop stop-opacity="1" stop-color="rgb(12.695312%, 61.930847%, 85.26001%)" offset="0.757812"/><stop stop-opacity="1" stop-color="rgb(12.413025%, 62.179565%, 85.174561%)" offset="0.761719"/><stop stop-opacity="1" stop-color="rgb(12.130737%, 62.42981%, 85.090637%)" offset="0.765625"/><stop stop-opacity="1" stop-color="rgb(11.84845%, 62.680054%, 85.005188%)" offset="0.769531"/><stop stop-opacity="1" stop-color="rgb(11.566162%, 62.930298%, 84.919739%)" offset="0.773438"/><stop stop-opacity="1" stop-color="rgb(11.283875%, 63.180542%, 84.83429%)" offset="0.777344"/><stop stop-opacity="1" stop-color="rgb(11.001587%, 63.430786%, 84.750366%)" offset="0.78125"/><stop stop-opacity="1" stop-color="rgb(10.719299%, 63.68103%, 84.664917%)" offset="0.785156"/><stop stop-opacity="1" stop-color="rgb(10.437012%, 63.931274%, 84.580994%)" offset="0.789062"/><stop stop-opacity="1" stop-color="rgb(10.154724%, 64.181519%, 84.495544%)" offset="0.792969"/><stop stop-opacity="1" stop-color="rgb(9.872437%, 64.431763%, 84.410095%)" offset="0.796875"/><stop stop-opacity="1" stop-color="rgb(9.590149%, 64.682007%, 84.324646%)" offset="0.800781"/><stop stop-opacity="1" stop-color="rgb(9.307861%, 64.932251%, 84.240723%)" offset="0.804687"/><stop stop-opacity="1" stop-color="rgb(9.025574%, 65.182495%, 84.155273%)" offset="0.808594"/><stop stop-opacity="1" stop-color="rgb(8.743286%, 65.432739%, 84.07135%)" offset="0.8125"/><stop stop-opacity="1" stop-color="rgb(8.491516%, 65.655518%, 83.995056%)" offset="0.816406"/><stop stop-opacity="1" stop-color="rgb(8.239746%, 65.879822%, 83.918762%)" offset="0.820312"/><stop stop-opacity="1" stop-color="rgb(8.239746%, 65.879822%, 83.918762%)" offset="0.828125"/><stop stop-opacity="1" stop-color="rgb(8.239746%, 65.879822%, 83.918762%)" offset="0.84375"/><stop stop-opacity="1" stop-color="rgb(8.239746%, 65.879822%, 83.918762%)" offset="0.875"/><stop stop-opacity="1" stop-color="rgb(8.239746%, 65.879822%, 83.918762%)" offset="1"/></linearGradient></defs><g clip-path="url(#9f1e0069a7)"><g clip-path="url(#399f2dfdcb)"><g transform="matrix(1, 0, 0, 1, 1, 0.00000000000000569)"><g clip-path="url(#7185ac10d2)"><g clip-path="url(#9d2957c1b0)"><g clip-path="url(#1ef669963e)"><rect x="-7.6" width="43.2" fill="#01031a" height="43.200001" y="-6.6" fill-opacity="1"/></g></g></g></g></g></g><g clip-path="url(#83be1c42f4)"><g clip-path="url(#aeb507cdb9)"><path fill="url(#e00402ddc4)" d="M 3.980469 2.902344 L 3.980469 26.128906 L 25.746094 26.128906 L 25.746094 2.902344 Z M 3.980469 2.902344 " fill-rule="nonzero"/></g></g><path fill="#ffffff" d="M 19.578125 19.285156 C 19.261719 19.601562 18.753906 19.601562 18.441406 19.285156 C 18.125 18.96875 18.125 18.453125 18.441406 18.136719 C 18.699219 17.871094 19.09375 17.824219 19.40625 18.003906 C 20.734375 16.234375 20.945312 13.839844 19.949219 11.863281 C 19.910156 11.78125 19.941406 11.683594 20.019531 11.644531 C 20.097656 11.601562 20.195312 11.632812 20.234375 11.714844 C 21.292969 13.8125 21.066406 16.347656 19.648438 18.21875 C 19.890625 18.539062 19.863281 18.996094 19.578125 19.285156 Z M 10.113281 19.285156 C 9.796875 18.96875 9.796875 18.453125 10.113281 18.136719 C 10.425781 17.816406 10.933594 17.816406 11.25 18.136719 C 11.507812 18.398438 11.554688 18.796875 11.378906 19.113281 C 13.125 20.457031 15.492188 20.671875 17.445312 19.660156 C 17.527344 19.621094 17.621094 19.652344 17.664062 19.730469 C 17.703125 19.8125 17.671875 19.910156 17.59375 19.949219 C 15.519531 21.023438 13.015625 20.789062 11.167969 19.355469 C 10.851562 19.601562 10.398438 19.574219 10.113281 19.285156 Z M 10.113281 9.707031 C 10.425781 9.390625 10.933594 9.390625 11.25 9.707031 C 11.5625 10.023438 11.5625 10.539062 11.25 10.855469 C 10.988281 11.117188 10.59375 11.167969 10.28125 10.988281 C 8.953125 12.757812 8.742188 15.152344 9.738281 17.128906 C 9.78125 17.210938 9.75 17.308594 9.671875 17.347656 C 9.589844 17.390625 9.496094 17.355469 9.453125 17.277344 C 8.394531 15.179688 8.625 12.644531 10.039062 10.773438 C 9.800781 10.453125 9.828125 9.996094 10.113281 9.707031 Z M 19.578125 9.707031 C 19.890625 10.023438 19.890625 10.539062 19.578125 10.855469 C 19.261719 11.175781 18.753906 11.175781 18.441406 10.855469 C 18.183594 10.59375 18.132812 10.195312 18.308594 9.878906 C 16.5625 8.535156 14.195312 8.320312 12.242188 9.332031 C 12.164062 9.371094 12.066406 9.339844 12.027344 9.257812 C 11.984375 9.179688 12.015625 9.082031 12.09375 9.042969 C 14.167969 7.96875 16.675781 8.199219 18.523438 9.632812 C 18.839844 9.390625 19.289062 9.417969 19.578125 9.707031 Z M 12.628906 16.875 C 13.167969 17.582031 13.925781 18.128906 14.84375 18.382812 C 15.765625 18.128906 16.523438 17.582031 17.058594 16.875 C 17.625 16.132812 17.941406 15.207031 17.941406 14.261719 L 17.941406 12.175781 L 14.84375 11.269531 L 11.746094 12.175781 L 11.746094 14.261719 C 11.746094 15.207031 12.066406 16.132812 12.628906 16.875 Z M 13.933594 13.628906 L 13.933594 13.367188 C 13.933594 12.917969 14.277344 12.539062 14.71875 12.539062 L 14.972656 12.539062 C 15.410156 12.539062 15.753906 12.917969 15.753906 13.367188 L 15.753906 13.628906 L 15.875 13.628906 C 16.238281 13.628906 16.539062 13.929688 16.539062 14.300781 L 16.539062 15.550781 C 16.539062 15.917969 16.238281 16.222656 15.875 16.222656 L 13.816406 16.222656 C 13.449219 16.222656 13.152344 15.917969 13.152344 15.550781 L 13.152344 14.300781 C 13.152344 13.929688 13.449219 13.628906 13.816406 13.628906 Z M 15.433594 13.628906 L 14.253906 13.628906 L 14.253906 13.367188 C 14.253906 13.097656 14.457031 12.863281 14.71875 12.863281 L 14.972656 12.863281 C 15.234375 12.863281 15.433594 13.097656 15.433594 13.367188 Z M 15.875 13.953125 C 16.0625 13.953125 16.214844 14.109375 16.214844 14.300781 L 16.214844 15.550781 C 16.214844 15.738281 16.0625 15.894531 15.875 15.894531 L 13.816406 15.894531 C 13.628906 15.894531 13.472656 15.738281 13.472656 15.550781 L 13.472656 14.300781 C 13.472656 14.109375 13.628906 13.953125 13.816406 13.953125 Z M 14.84375 14.550781 C 15.109375 14.550781 15.21875 14.894531 15.003906 15.050781 L 15.003906 15.265625 C 15.003906 15.355469 14.933594 15.425781 14.84375 15.425781 C 14.753906 15.425781 14.683594 15.355469 14.683594 15.265625 L 14.683594 15.050781 C 14.472656 14.894531 14.578125 14.550781 14.84375 14.550781 Z M 14.84375 14.550781 " fill-opacity="1" fill-rule="evenodd"/></svg>